<svg version="1.1" xmlns="http://www.w3.org/2000/svg" x="0px" y="0px" width="15px" height="15px" viewBox="0 0 15 15" xml:space="preserve">
<circle cx="7.5" cy="7.5" r="1.719"/>
<path d="M7.5,3.5V1C6.818,1,6.14,1.108,5.492,1.318L6.27,3.713C6.66,3.586,7.068,3.5,7.5,3.5z"/>
<path fill-opacity="0.95" d="M6.27,3.713L5.492,1.318c-0.648,0.211-1.16,0.466-1.719,0.857L5.21,4.229
	C5.531,4.003,5.89,3.837,6.27,3.713z"/>
<path fill-opacity="0.9" d="M5.21,4.229L3.773,2.175C3.214,2.566,2.799,2.96,2.379,3.498l1.983,1.549
	C4.606,4.736,4.886,4.456,5.21,4.229z"/>
<path fill-opacity="0.85" d="M4.362,5.047L2.379,3.498c-0.42,0.537-0.702,1.035-0.946,1.671l2.342,0.899
	C3.919,5.696,4.12,5.357,4.362,5.047z"/>
<path fill-opacity="0.8" d="M3.776,6.069L1.434,5.169C1.189,5.806,1.066,6.364,1.019,7.045l2.51,0.175
	C3.557,6.818,3.637,6.43,3.776,6.069z"/>
<path fill-opacity="0.75" d="M3.5,7.5c0-0.096,0.021-0.185,0.028-0.279l-2.51-0.175
	c-0.048,0.68-0.003,1.25,0.15,1.915l2.44-0.563C3.543,8.107,3.5,7.81,3.5,7.5z"/>
<path fill-opacity="0.7" d="M3.609,8.396L1.169,8.96c0.153,0.665,0.362,1.197,0.704,1.788L4.05,9.49
	C3.854,9.152,3.7,8.788,3.609,8.396z"/>
<path fill-opacity="0.65" d="M4.05,9.49l-2.178,1.258c0.341,0.59,0.773,1.124,1.28,1.579l1.681-1.866
	C4.522,10.181,4.261,9.854,4.05,9.49z"/>
<path fill-opacity="0.6" d="M4.833,10.461l-1.681,1.866c0.506,0.456,0.984,0.772,1.602,1.061l1.06-2.272
	C5.453,10.946,5.125,10.725,4.833,10.461z"/>
<path fill-opacity="0.55" d="M5.813,11.115l-1.06,2.272c0.618,0.288,1.166,0.45,1.841,0.546l0.35-2.489
	C6.546,11.388,6.166,11.279,5.813,11.115z"/>
<path fill-opacity="0.5" d="M7.5,11.5c-0.19,0-0.372-0.03-0.555-0.056l-0.35,2.489
	c0.675,0.094,1.248,0.089,1.919-0.018l-0.392-2.479C7.918,11.47,7.713,11.5,7.5,11.5z"/>
<path fill-opacity="0.45" d="M8.123,11.438l0.392,2.479c0.674-0.106,1.22-0.277,1.833-0.577l-1.101-2.257
	C8.896,11.254,8.521,11.374,8.123,11.438z"/>
<path fill-opacity="0.4" d="M9.247,11.082l1.101,2.257c0.612-0.299,1.084-0.624,1.582-1.088l-1.71-1.834
	C9.933,10.686,9.604,10.907,9.247,11.082z"/>
<path fill-opacity="0.35" d="M10.22,10.417l1.71,1.834c0.498-0.465,0.854-0.913,1.195-1.503l-2.176-1.257
	C10.75,9.835,10.509,10.147,10.22,10.417z"/>
<path fill-opacity="0.3" d="M10.949,9.491l2.176,1.257c0.342-0.591,0.587-1.231,0.729-1.898l-2.442-0.52
	C11.323,8.748,11.157,9.133,10.949,9.491z"/>
<path fill-opacity="0.25" d="M13.972,6.931l-2.507,0.22C11.475,7.268,11.5,7.38,11.5,7.5
	c0,0.285-0.032,0.563-0.089,0.83l2.442,0.52C13.996,8.183,14.031,7.611,13.972,6.931z"/>
<path fill-opacity="0.2" d="M11.465,7.151l2.507-0.22c-0.06-0.679-0.194-1.235-0.449-1.867l-2.319,0.938
	C11.349,6.36,11.43,6.749,11.465,7.151z"/>
<path fill-opacity="0.15" d="M11.203,6.001l2.319-0.938c-0.256-0.632-0.546-1.125-0.976-1.655l-1.954,1.583
	C10.841,5.298,11.053,5.631,11.203,6.001z"/>
<path fill-opacity="0.1" d="M10.593,4.993l1.954-1.583c-0.428-0.53-0.85-0.917-1.414-1.298L9.735,4.183
	C10.063,4.405,10.343,4.686,10.593,4.993z"/>
<path opacity="0.05" d="M9.735,4.183l1.397-2.072c-0.566-0.381-1.082-0.627-1.734-0.827L8.662,3.692
	C9.045,3.809,9.411,3.964,9.735,4.183z"/>
<path opacity="0" d="M7.5,3.5c0.407,0,0.792,0.079,1.162,0.192l0.736-2.408C8.747,1.085,8.182,1,7.5,1L7.5,3.5L7.5,3.5z"/>
</svg>
